<?xml version="1.0" standalone="no"?>
<!DOCTYPE svg PUBLIC "-//W3C//DTD SVG 20010904//EN"
 "http://www.w3.org/TR/2001/REC-SVG-20010904/DTD/svg10.dtd">
<svg version="1.0" xmlns="http://www.w3.org/2000/svg"
 width="658.000000pt" height="658.000000pt" viewBox="0 0 658.000000 658.000000"
 preserveAspectRatio="xMidYMid meet">
<metadata>
Created by potrace 1.14, written by Peter Selinger 2001-2017
</metadata>
<g transform="translate(0.000000,658.000000) scale(0.100000,-0.100000)"
fill="#000000" stroke="none">
<path d="M3800 6531 c0 -12 15 -26 80 -76 55 -41 73 -58 101 -91 9 -10 48 -43
87 -73 45 -35 72 -63 76 -80 4 -17 33 -47 79 -83 54 -43 72 -64 73 -83 2 -26
2 -27 -20 -7 -11 10 -75 63 -141 118 -66 54 -122 101 -125 104 -3 3 -52 44
-110 90 -58 46 -113 91 -123 100 -32 30 -66 45 -78 33 -8 -8 -6 -15 7 -26 87
-71 154 -130 154 -136 0 -4 38 -37 85 -74 52 -41 85 -74 85 -85 0 -12 32 -44
80 -83 44 -35 80 -68 80 -72 0 -12 -38 11 -80 49 -20 19 -48 34 -61 34 -13 0
-38 12 -54 28 -56 50 -170 147 -220 186 -27 22 -66 55 -86 74 -36 33 -68 40
-77 14 -2 -6 5 -15 16 -20 28 -11 142 -115 142 -130 0 -7 10 -17 23 -22 25
-10 137 -110 122 -110 -5 0 -23 14 -41 31 -24 23 -37 29 -54 24 -15 -5 -20
-13 -17 -26 7 -28 -5 -23 -43 16 -19 19 -38 35 -43 35 -5 0 -47 34 -93 76 -55
50 -90 74 -100 70 -19 -7 -5 -37 31 -60 14 -9 25 -26 25 -39 0 -28 6 -36 55
-72 58 -43 68 -54 61 -71 -5 -13 -15 -9 -54 22 -26 21 -76 61 -111 89 -35 27
-81 65 -102 83 -27 24 -44 32 -59 27 -26 -8 -26 -31 2 -53 57 -45 108 -96 108
-106 0 -6 10 -18 23 -25 12 -8 43 -32 69 -55 36 -31 45 -43 36 -53 -9 -11 -16
-9 -37 10 -14 13 -38 32 -52 43 -15 10 -64 51 -110 89 -46 39 -117 94 -156
124 -40 29 -73 57 -73 62 0 5 -16 9 -35 9 -55 0 -48 -24 25 -80 25 -19 54 -43
65 -52 18 -16 113 -95 143 -119 7 -6 11 -16 9 -22 -9 -27 -41 -16 -95 30 -31
27 -73 60 -92 73 -19 13 -37 27 -40 30 -14 18 -107 82 -135 94 -18 8 -51 30
-73 50 -39 36 -75 46 -87 26 -9 -14 52 -102 86 -126 28 -20 171 -134 179 -144
3 -3 21 -17 40 -31 60 -45 94 -78 89 -84 -6 -6 -26 9 -188 143 -55 45 -108 82
-118 82 -10 0 -47 25 -83 56 -47 39 -72 54 -89 52 -32 -4 -37 -22 -13 -46 11
-11 23 -29 27 -41 3 -12 10 -21 14 -21 4 0 32 -21 62 -46 30 -25 63 -53 74
-61 11 -9 36 -30 55 -47 51 -45 140 -119 159 -133 9 -6 13 -15 9 -19 -4 -4
-27 11 -51 32 -24 21 -62 55 -84 75 -22 20 -52 39 -66 43 -14 3 -38 20 -54 38
-15 18 -41 39 -57 46 -16 7 -52 33 -81 57 -34 29 -62 45 -79 45 -36 0 -47 -29
-18 -48 12 -8 22 -25 22 -38 0 -15 8 -25 22 -30 27 -8 177 -136 311 -264 54
-52 105 -101 113 -108 10 -10 29 -11 72 -5 31 4 64 7 72 6 8 -1 41 -5 73 -8
56 -7 58 -6 90 28 35 37 85 67 114 67 32 0 84 -39 99 -75 19 -47 18 -94 -6
-157 -11 -29 -19 -67 -18 -83 1 -17 -2 -41 -6 -55 -5 -19 -2 -32 13 -49 11
-13 22 -44 25 -69 3 -26 13 -84 21 -130 9 -46 14 -86 11 -90 -5 -8 -13 -80
-22 -202 l-7 -90 39 -58 c22 -31 48 -82 58 -112 10 -30 27 -69 37 -86 21 -35
86 -94 103 -94 12 0 98 -78 112 -101 5 -8 32 -32 61 -52 28 -21 53 -41 55 -45
3 -6 23 -23 113 -92 40 -30 237 -199 285 -244 71 -65 156 -134 185 -149 17 -8
56 -40 88 -71 60 -58 81 -67 91 -40 10 27 8 30 -81 105 -49 41 -91 79 -96 86
-4 7 -42 40 -85 75 -42 34 -85 70 -95 79 -11 10 -41 35 -68 56 -26 21 -49 43
-49 48 -1 6 -50 52 -111 104 -60 52 -109 100 -109 108 0 22 12 15 72 -41 31
-29 71 -64 88 -77 45 -34 194 -153 200 -159 3 -3 30 -25 60 -50 30 -25 77 -65
103 -90 27 -25 61 -48 75 -52 15 -4 43 -21 62 -38 42 -36 70 -39 69 -7 0 16
-35 50 -131 126 -71 58 -133 112 -136 120 -3 9 -44 54 -91 100 -47 46 -76 78
-65 70 27 -18 131 -97 158 -120 12 -9 41 -34 66 -54 25 -20 52 -42 61 -50 9
-7 30 -16 47 -20 24 -5 33 -2 41 13 9 17 3 27 -44 71 -59 54 -75 83 -69 122 3
18 -3 30 -28 48 -18 14 -46 41 -62 60 -29 35 -29 35 15 -5 24 -23 62 -56 84
-75 22 -19 72 -65 112 -103 74 -71 103 -80 103 -33 0 15 -16 37 -45 63 -30 25
-44 45 -41 56 2 9 -2 25 -10 35 -7 10 -14 26 -14 35 0 9 -12 26 -27 37 -56 45
-114 103 -111 112 4 12 107 -74 299 -249 49 -44 81 -52 87 -20 3 18 -7 29 -81
93 -46 39 -47 41 -41 83 3 23 2 42 -2 42 -5 0 -36 25 -69 56 -33 31 -51 50
-40 43 11 -8 22 -16 25 -19 3 -3 58 -50 123 -104 66 -55 121 -105 124 -113 3
-7 16 -13 29 -13 20 0 24 5 24 28 0 23 -14 39 -71 86 -65 54 -69 59 -54 76 9
10 13 24 8 36 -4 11 15 1 54 -29 65 -50 103 -60 103 -28 0 16 -23 38 -114 111
-10 8 -38 31 -61 50 -23 19 -66 53 -95 75 -87 66 -142 115 -129 115 6 0 19 -8
28 -18 40 -43 212 -172 231 -172 53 0 5 61 -123 155 -18 13 -27 29 -27 47 0
14 -4 28 -8 30 -9 3 -67 49 -128 102 -19 15 -34 34 -34 41 0 7 -11 20 -24 28
-46 30 -56 46 -49 79 6 28 1 36 -56 88 -37 34 -59 60 -52 64 6 4 30 -14 55
-39 52 -52 83 -59 88 -18 l3 27 38 -33 c40 -36 67 -36 66 1 0 16 -22 40 -69
78 -38 30 -69 61 -70 68 0 21 13 14 70 -38 57 -51 77 -59 98 -38 10 10 15 10
21 -1 5 -7 17 -11 27 -9 21 4 31 45 15 61 -7 7 -4 14 12 22 14 7 22 20 22 37
0 14 3 30 8 34 16 17 5 45 -30 71 -21 15 -40 30 -43 33 -3 3 -25 21 -50 40
-25 19 -51 40 -58 48 -8 7 -30 25 -50 40 -42 31 -67 51 -132 107 -26 22 -86
72 -133 110 -47 39 -86 74 -86 78 -1 9 58 -30 74 -49 6 -7 31 -28 56 -47 25
-19 56 -43 69 -53 12 -10 42 -35 65 -54 24 -19 69 -55 100 -80 32 -25 74 -59
94 -75 102 -86 151 -107 151 -66 0 12 -31 44 -84 86 -46 37 -87 77 -90 89 -3
13 -44 53 -91 91 -47 37 -85 73 -85 81 0 7 -28 36 -62 65 -35 28 -83 69 -108
90 -25 21 -56 48 -70 60 -14 12 -41 33 -60 47 -19 15 -60 47 -90 72 -30 25
-61 50 -70 57 -38 30 -157 127 -180 146 -14 12 -38 30 -53 40 -35 23 -58 41
-112 90 -39 34 -85 49 -85 28z m85 -473 c19 -17 33 -33 30 -36 -2 -3 -23 12
-45 32 -22 20 -35 36 -30 36 6 0 26 -14 45 -32z m526 -125 c8 -9 -5 -2 -28 17
-24 18 -43 35 -43 37 0 7 56 -35 71 -54z m424 -499 c28 -25 60 -53 73 -61 24
-17 48 -53 35 -53 -4 0 -29 20 -54 43 -26 23 -63 55 -83 70 -33 26 -46 47 -28
47 4 0 30 -21 57 -46z m-640 -209 c69 -65 125 -125 125 -133 0 -9 -19 3 -47
29 -27 24 -63 56 -80 71 -18 15 -33 30 -33 35 0 4 -30 34 -65 67 -36 32 -65
63 -65 68 0 15 34 -13 165 -137z m-340 95 c3 -6 -1 -7 -9 -4 -18 7 -21 14 -7
14 6 0 13 -4 16 -10z m175 -88 c30 -29 61 -57 69 -62 12 -7 12 -11 -1 -24 -14
-14 -22 -10 -84 42 -38 32 -80 65 -94 75 -19 13 -21 17 -7 17 10 0 20 7 23 15
8 19 15 14 94 -63z m670 -302 c0 -5 -2 -10 -4 -10 -3 0 -8 5 -11 10 -3 6 -1
10 4 10 6 0 11 -4 11 -10z m36 -31 c19 -22 19 -22 -3 -8 -13 8 -23 17 -23 21
0 12 6 9 26 -13z m68 -58 c-2 -3 -12 3 -22 13 -16 17 -16 18 5 5 12 -7 20 -15
17 -18z m37 -28 c13 -17 13 -17 -6 -3 -11 8 -22 16 -24 17 -2 2 0 3 6 3 6 0
17 -8 24 -17z"/>
<path d="M2571 6176 c-8 -10 -6 -19 9 -39 11 -14 20 -32 20 -41 0 -8 8 -21 18
-28 10 -7 52 -43 93 -80 41 -37 85 -76 99 -88 l25 -21 -40 6 c-27 4 -53 19
-80 45 -151 146 -185 166 -200 119 -7 -20 2 -32 30 -42 6 -3 7 -8 3 -12 -4 -4
-36 16 -72 44 -40 31 -71 48 -81 45 -25 -10 -17 -31 25 -64 23 -18 39 -35 36
-38 -3 -2 -21 8 -39 24 -19 16 -58 47 -87 69 -29 22 -67 52 -85 68 -38 32 -75
36 -75 8 0 -10 10 -26 23 -34 43 -29 97 -87 97 -105 0 -10 12 -25 28 -35 15
-9 45 -33 67 -52 l40 -36 -40 22 c-22 13 -69 47 -105 76 -161 134 -188 150
-204 124 -8 -13 4 -41 18 -41 17 0 116 -105 116 -124 0 -8 11 -21 24 -28 30
-16 131 -108 119 -108 -5 0 -19 9 -31 20 -12 11 -27 20 -34 20 -7 0 -65 46
-128 101 -89 77 -121 99 -140 97 -30 -4 -39 -35 -13 -45 25 -8 63 -44 63 -58
0 -7 11 -17 25 -23 14 -7 30 -23 35 -36 8 -22 41 -55 140 -144 27 -25 31 -31
17 -32 -10 0 -32 14 -49 31 -17 17 -41 34 -52 39 -24 9 -216 179 -216 192 0
11 -58 10 -65 -2 -3 -5 11 -27 32 -49 21 -21 66 -67 100 -102 33 -35 85 -84
114 -109 126 -108 184 -168 172 -181 -9 -9 -26 2 -75 49 -35 33 -86 77 -114
99 -28 21 -91 75 -139 121 -86 81 -120 98 -132 66 -4 -10 7 -26 31 -45 20 -17
36 -38 36 -48 0 -9 12 -24 28 -34 27 -16 52 -39 208 -186 335 -315 375 -352
398 -355 7 -1 42 -28 77 -60 35 -32 74 -65 86 -73 25 -16 43 -10 43 14 0 17
-20 37 -189 193 -158 145 -204 190 -200 195 2 2 32 -22 65 -53 34 -31 114
-106 179 -167 130 -120 149 -138 219 -205 l46 -45 -13 45 c-8 25 -24 72 -36
105 -23 65 -28 174 -10 222 6 15 17 63 25 105 13 69 13 86 -1 153 -30 146 -11
223 60 241 33 8 108 -31 151 -78 31 -35 64 -50 64 -30 0 5 -26 32 -57 60 -32
28 -87 78 -123 111 -35 34 -67 61 -70 61 -3 0 -17 11 -32 25 -15 14 -38 25
-52 25 -18 0 -49 22 -103 75 -79 75 -101 86 -122 61z m-126 -437 c28 -30 26
-29 -17 6 -27 22 -48 41 -48 42 0 10 39 -19 65 -48z m-81 -255 c5 -14 4 -15
-9 -4 -17 14 -19 20 -6 20 5 0 12 -7 15 -16z"/>
<path d="M1800 5488 c0 -18 9 -29 50 -62 19 -16 65 -56 102 -89 37 -33 78 -67
90 -76 23 -15 54 -41 112 -93 25 -22 28 -30 17 -37 -10 -6 -56 25 -170 116
-86 68 -178 142 -206 163 -27 22 -58 40 -68 40 -26 0 -34 -30 -11 -47 41 -29
100 -79 129 -108 17 -16 53 -48 80 -70 84 -66 175 -148 175 -157 0 -4 -7 -8
-15 -8 -8 0 -15 3 -15 8 0 8 -114 102 -125 102 -4 0 -40 29 -80 65 -40 36 -80
65 -89 65 -9 0 -36 18 -61 41 -30 28 -51 40 -67 37 -35 -5 -35 -40 -1 -55 28
-13 90 -68 115 -101 7 -10 25 -25 39 -34 14 -9 57 -45 95 -80 39 -34 104 -93
145 -129 41 -36 90 -80 109 -97 19 -17 29 -32 22 -32 -13 0 -84 62 -235 202
-34 32 -70 58 -80 58 -11 0 -50 30 -88 66 -52 51 -73 65 -89 61 -15 -4 -32 6
-62 34 -44 41 -75 50 -85 23 -4 -11 13 -33 56 -71 100 -89 217 -203 209 -203
-5 0 -36 27 -70 60 -61 57 -90 71 -103 50 -4 -6 -25 7 -48 30 -24 22 -52 40
-65 40 -30 0 -42 -30 -17 -44 30 -18 119 -98 128 -115 5 -9 25 -29 45 -44 20
-15 66 -56 102 -90 277 -262 475 -440 502 -450 11 -4 32 -19 47 -35 66 -68
113 -103 131 -97 13 4 36 -10 80 -52 69 -64 96 -81 110 -67 5 5 13 47 19 94
25 200 39 235 132 336 63 68 108 138 109 170 0 7 -33 38 -72 70 -40 33 -74 62
-76 67 -2 4 -12 7 -22 7 -38 0 -33 -23 16 -68 27 -24 42 -40 34 -34 -28 18
-185 145 -191 155 -10 15 -44 3 -43 -16 2 -20 6 -22 -79 46 -33 26 -63 47 -69
47 -6 0 -36 23 -68 50 -32 28 -64 50 -72 50 -8 0 -67 42 -131 93 -63 50 -139
110 -168 132 -28 22 -66 52 -84 68 -34 28 -75 36 -75 15z m380 -505 c0 -7 -58
36 -66 49 -4 7 9 -1 29 -16 20 -16 37 -30 37 -33z"/>
<path d="M3227 5464 c-4 -4 -2 -13 4 -21 9 -10 8 -13 -5 -13 -9 0 -16 -8 -16
-20 0 -15 9 -22 31 -27 43 -8 58 -37 58 -112 -1 -61 -2 -66 -40 -105 l-40 -41
26 -8 c20 -7 36 -4 61 9 19 10 34 23 34 28 0 5 8 15 18 22 14 10 17 28 17 96
0 85 -10 114 -53 165 -19 22 -82 40 -95 27z"/>
<path d="M3092 5389 c-24 -56 -34 -121 -26 -165 9 -48 57 -94 97 -94 27 1 29
2 15 11 -10 5 -18 15 -18 21 0 6 -7 19 -16 29 -12 13 -13 22 -5 38 13 23 14
64 4 75 -5 4 -8 30 -8 56 0 72 -19 85 -43 29z"/>
<path d="M2875 4881 c-9 -16 15 -55 27 -43 12 12 7 44 -9 49 -6 2 -14 -1 -18
-6z"/>
<path d="M3890 4483 c0 -4 9 -37 21 -73 35 -113 49 -170 49 -203 0 -18 4 -48
10 -67 6 -22 6 -55 0 -95 l-10 -60 33 -30 c88 -80 108 -95 121 -95 7 0 31 -17
53 -37 21 -21 76 -72 123 -113 46 -41 100 -91 120 -110 63 -61 138 -120 153
-120 8 0 18 7 21 16 6 16 -63 91 -184 196 -45 40 -51 49 -41 62 15 17 -1 36
-107 128 -32 27 -50 48 -43 52 6 4 61 -39 123 -96 62 -57 131 -118 153 -137
22 -18 70 -62 107 -97 69 -65 98 -74 98 -30 0 14 -17 36 -45 59 -25 21 -45 44
-45 52 0 7 -4 15 -9 17 -5 2 -39 30 -76 62 -49 44 -65 65 -61 79 5 20 -1 27
-89 102 -99 84 -131 116 -114 113 16 -3 208 -170 295 -255 24 -24 48 -43 55
-43 12 0 123 -86 153 -119 22 -25 54 -28 63 -5 7 18 -125 149 -275 272 -35 30
-52 51 -52 67 0 21 -37 58 -121 120 -39 29 -211 169 -229 186 -8 8 -28 25 -45
38 -16 12 -63 53 -104 89 -78 71 -101 88 -101 75z"/>
<path d="M2031 4300 c-10 -6 -10 -12 -2 -29 10 -18 9 -21 -8 -21 -11 0 -23 -5
-27 -11 -4 -8 -9 -8 -17 0 -13 13 -44 14 -51 2 -9 -14 4 -41 20 -41 8 0 14 -4
14 -10 0 -5 -8 -10 -18 -10 -10 0 -23 -5 -30 -12 -9 -9 -12 -9 -12 0 0 21 -48
14 -61 -9 -11 -22 -1 -37 26 -40 6 0 -1 -4 -15 -8 -15 -5 -24 -14 -24 -25 2
-16 0 -16 -15 -2 -22 20 -71 21 -71 2 0 -8 13 -28 29 -43 l30 -28 -20 -24
c-15 -19 -22 -22 -28 -12 -13 21 -56 9 -59 -16 -2 -14 2 -23 10 -23 7 0 58
-42 113 -93 186 -173 240 -229 228 -234 -28 -11 -10 -41 55 -90 37 -29 81 -65
97 -80 17 -15 46 -40 65 -55 62 -47 125 -107 113 -108 -12 0 -150 112 -164
134 -4 5 -20 6 -36 3 -25 -5 -40 3 -107 59 -82 69 -118 80 -124 37 -2 -14 2
-23 10 -23 8 0 43 -26 79 -57 36 -32 94 -83 128 -113 35 -30 76 -67 93 -81 22
-18 27 -28 19 -34 -12 -7 -28 6 -134 108 -43 40 -58 45 -80 23 -11 -12 -25 -3
-92 60 -46 43 -85 72 -93 69 -7 -3 -18 -5 -23 -5 -22 0 -5 -30 46 -78 31 -29
53 -52 49 -52 -9 0 -143 108 -165 132 -9 10 -23 18 -32 18 -30 0 -28 -21 4
-48 94 -80 96 -81 72 -82 -12 0 -27 -9 -33 -20 -11 -20 -13 -19 -59 22 -62 56
-98 75 -112 61 -8 -8 -6 -16 7 -27 11 -8 46 -37 79 -63 32 -26 73 -61 90 -78
32 -32 126 -111 156 -133 11 -7 19 -21 19 -31 0 -10 12 -26 26 -36 34 -22 78
-59 133 -112 24 -24 46 -43 48 -43 3 0 32 -24 66 -52 34 -29 64 -54 66 -56 3
-1 0 -7 -6 -13 -6 -6 -9 -18 -5 -27 5 -13 -58 34 -188 141 -27 22 -162 139
-170 147 -3 3 -41 37 -85 75 -44 39 -82 72 -85 75 -3 3 -17 11 -32 19 -15 7
-58 42 -96 77 -70 64 -104 78 -116 49 -4 -10 2 -19 18 -25 13 -4 49 -32 81
-62 31 -29 61 -54 66 -56 5 -2 9 -10 9 -18 0 -8 10 -18 23 -23 35 -14 157
-131 157 -151 0 -10 10 -20 23 -24 32 -9 151 -122 152 -144 0 -11 27 -42 63
-71 34 -29 62 -57 62 -61 0 -27 -28 -15 -89 39 -38 34 -72 61 -76 61 -6 0
-149 122 -165 141 -25 29 -213 189 -223 189 -6 0 -48 34 -92 75 -44 41 -84 75
-88 75 -18 0 -18 -32 -1 -48 180 -160 504 -472 474 -457 -8 5 -43 30 -76 57
-63 49 -80 56 -86 38 -2 -6 -39 23 -83 65 -44 41 -86 75 -94 75 -7 0 -49 34
-92 75 -43 41 -85 75 -93 75 -18 0 -31 -33 -15 -39 15 -5 144 -116 161 -138 7
-10 42 -45 78 -78 35 -33 64 -67 65 -76 0 -8 42 -51 92 -94 75 -64 90 -81 77
-88 -12 -7 -25 -1 -47 20 -45 42 -95 75 -105 69 -5 -3 -21 6 -36 20 -15 14
-34 23 -42 20 -21 -8 -17 -24 9 -37 12 -6 47 -35 77 -63 56 -52 153 -138 245
-216 28 -24 54 -50 59 -59 10 -17 -12 1 -172 142 -55 48 -106 87 -113 87 -7 0
-26 12 -41 27 -24 23 -32 26 -48 15 -16 -10 -23 -7 -49 18 -16 17 -34 30 -40
30 -27 0 -5 -33 61 -91 131 -115 125 -109 104 -109 -11 0 -46 23 -78 51 -42
36 -63 49 -77 44 -11 -3 -22 -1 -26 5 -9 14 -37 13 -33 -3 2 -7 41 -48 88 -91
47 -44 87 -83 88 -88 9 -23 -24 -2 -79 48 -43 40 -64 53 -72 45 -7 -7 4 -23
39 -53 50 -44 176 -162 295 -277 45 -43 65 -70 62 -82 -3 -10 2 -19 14 -23 29
-11 113 -93 114 -113 0 -10 24 -36 52 -59 29 -22 57 -50 62 -61 6 -12 36 -43
66 -70 45 -39 202 -186 414 -385 41 -39 59 -46 71 -27 4 7 24 -6 53 -34 25
-24 71 -62 101 -85 30 -22 71 -56 89 -76 35 -36 64 -46 77 -25 3 6 -8 25 -25
43 -17 18 -31 38 -31 46 0 8 -28 43 -62 77 -34 35 -57 63 -51 63 6 0 25 -16
42 -35 17 -19 36 -35 43 -35 7 0 41 -27 76 -60 34 -33 69 -60 77 -60 25 0 18
48 -10 66 -14 9 -25 26 -25 38 0 13 -22 41 -61 77 -34 30 -60 61 -58 68 3 8
21 -2 51 -28 25 -23 49 -41 53 -41 4 0 37 -27 74 -60 47 -41 73 -58 85 -54 23
9 20 22 -14 54 -16 15 -30 36 -30 45 0 10 -28 44 -62 76 -35 32 -58 58 -51 59
7 0 21 -9 31 -21 11 -11 34 -28 51 -37 17 -9 53 -39 81 -66 31 -30 55 -46 65
-42 25 9 17 43 -15 66 -19 13 -30 30 -30 45 0 12 -7 25 -15 29 -8 3 -15 13
-15 22 0 12 9 9 42 -15 69 -51 112 -31 48 22 -17 14 -30 34 -30 45 0 11 -27
40 -70 74 -58 46 -67 57 -50 61 15 4 37 -12 86 -59 37 -35 68 -64 70 -64 6 0
34 32 34 40 0 5 -18 27 -40 50 -24 25 -37 47 -33 56 7 20 11 18 78 -44 34 -31
63 -51 72 -48 16 6 158 -109 158 -128 0 -8 28 -37 63 -66 34 -29 62 -54 62
-56 0 -2 -12 -2 -27 -1 -32 2 -45 -28 -16 -37 25 -8 271 -245 255 -246 -7 0
-46 32 -87 70 -41 39 -78 70 -83 70 -5 0 -15 -7 -22 -15 -11 -13 -10 -18 6
-30 10 -8 22 -15 27 -15 4 0 7 -9 7 -19 0 -10 24 -42 53 -70 43 -42 49 -53 37
-61 -21 -14 -21 -13 -60 20 -38 33 -48 33 -64 6 -8 -14 -8 -20 3 -24 7 -2 28
-17 45 -33 29 -26 30 -28 9 -29 -12 0 -25 -5 -28 -10 -7 -11 63 -80 187 -187
82 -71 90 -92 11 -28 -56 45 -152 120 -178 139 -15 11 -65 -17 -65 -37 0 -7
12 -20 28 -30 31 -19 180 -156 171 -157 -4 0 -48 36 -99 79 -51 43 -103 85
-116 92 -33 17 -48 1 -37 -38 7 -26 47 -67 169 -172 21 -19 66 -59 99 -90 33
-31 83 -76 110 -100 28 -24 45 -42 38 -40 -13 5 -196 159 -318 269 -127 114
-140 123 -164 110 -26 -14 -27 -32 -1 -55 11 -10 20 -26 20 -37 0 -10 5 -18
11 -18 6 0 52 -37 103 -82 50 -45 93 -84 95 -85 2 -2 2 -5 0 -8 -3 -2 -45 30
-95 73 -196 170 -217 183 -231 146 -4 -11 12 -33 53 -70 l59 -55 -77 61 c-43
34 -82 58 -88 55 -5 -3 -10 -17 -10 -31 0 -22 -2 -23 -21 -14 -11 7 -28 9 -37
5 -15 -6 -14 -9 7 -26 l23 -19 -24 0 c-13 0 -33 7 -45 15 -14 10 -24 12 -28 5
-8 -13 3 -50 16 -50 5 0 49 -35 97 -77 49 -43 117 -103 152 -133 35 -30 93
-81 129 -112 36 -32 70 -58 76 -58 5 0 30 -21 56 -46 46 -46 79 -54 79 -20 0
7 -53 60 -117 117 -158 141 -333 301 -333 305 0 7 245 -203 356 -305 198 -181
194 -178 210 -156 12 17 10 22 -19 46 -17 16 -26 28 -19 29 30 1 5 40 -64 100
-41 36 -70 66 -64 68 11 4 99 -68 183 -151 27 -26 55 -47 63 -47 23 0 16 45
-11 70 -48 45 -25 41 27 -4 29 -25 58 -46 65 -46 12 0 43 54 43 74 0 7 -24 32
-54 56 -29 25 -59 54 -66 65 -16 24 103 -78 130 -112 25 -33 56 -27 53 10 -1
15 2 27 8 27 5 0 9 11 9 25 0 14 -4 25 -10 25 -5 0 -10 5 -10 10 0 17 13 11
49 -20 71 -63 98 -23 28 42 -30 28 -36 37 -21 33 13 -3 28 0 37 9 13 13 18 11
47 -19 18 -18 39 -31 46 -28 18 7 18 50 0 60 -32 19 -118 95 -201 178 -49 50
-139 137 -200 193 -60 57 -92 89 -69 70 62 -50 252 -215 309 -267 28 -25 74
-66 103 -90 49 -40 56 -43 78 -31 36 20 29 43 -23 85 -27 21 -70 61 -98 89
-27 28 -71 70 -97 94 -65 58 -61 74 5 20 28 -24 54 -45 57 -48 3 -3 25 -21 49
-40 24 -18 69 -58 100 -87 59 -56 78 -63 88 -36 5 12 -11 33 -57 75 -36 32
-59 58 -52 58 27 0 9 28 -55 89 -72 67 -59 59 82 -52 82 -64 115 -77 115 -44
0 8 -15 26 -34 40 -25 20 -32 32 -29 49 4 21 -23 47 -186 186 -174 149 -341
305 -341 319 0 3 19 -12 43 -33 23 -22 69 -62 102 -91 33 -28 76 -65 95 -82
19 -17 42 -28 50 -26 9 3 41 -19 77 -50 33 -30 65 -55 69 -55 4 0 26 -16 50
-35 47 -39 74 -45 74 -17 0 14 -230 213 -348 302 -4 3 -18 21 -32 40 -24 35
-24 35 30 -10 30 -25 72 -62 94 -83 22 -21 46 -35 54 -32 8 3 32 -9 53 -26 36
-29 69 -33 69 -10 0 5 -49 50 -110 101 -60 50 -110 97 -110 106 0 18 9 13 66
-33 23 -18 48 -33 58 -33 33 0 15 29 -48 76 -54 41 -63 53 -60 74 3 20 -6 33
-51 69 -30 24 -55 49 -55 56 0 8 -25 35 -55 60 -30 26 -55 53 -55 61 0 7 -25
32 -55 56 -30 24 -58 50 -60 60 -3 9 -21 28 -40 43 -31 23 -39 25 -72 16 -21
-6 -58 -11 -83 -11 -65 0 -81 -13 -49 -39 32 -27 16 -27 -21 1 -30 22 -130 36
-130 17 0 -5 6 -9 13 -9 19 0 101 -87 89 -94 -6 -3 -60 39 -121 93 -71 64
-107 103 -99 107 7 5 26 -9 49 -34 36 -41 59 -53 59 -31 0 7 8 18 18 25 16 13
14 17 -26 53 -55 50 -37 64 22 17 41 -35 44 -35 59 -18 22 24 21 34 -4 50 -12
7 -19 16 -16 18 3 3 17 -2 31 -11 35 -23 34 -6 0 63 -21 43 -48 70 -147 149
-67 54 -124 100 -127 103 -16 17 -80 60 -90 60 -12 0 -58 -19 -120 -48 -19 -9
-48 -29 -65 -43 -16 -14 -47 -34 -68 -44 -48 -23 -62 -43 -89 -136 -36 -123
-75 -150 -216 -147 -71 2 -101 -3 -162 -24 -47 -17 -77 -22 -81 -16 -4 6 -20
7 -38 3 -21 -4 -31 -3 -31 5 0 7 -7 10 -15 6 -21 -8 -19 33 3 60 19 24 61 39
134 49 91 13 107 56 108 281 0 130 21 351 35 374 3 4 -2 13 -10 20 -14 11 -13
14 3 26 10 7 26 32 36 56 28 67 35 81 55 113 l19 30 -32 35 c-24 26 -25 30 -6
15 14 -11 28 -24 32 -29 8 -12 67 38 98 82 17 24 21 40 17 68 -7 44 -41 114
-70 146 -17 19 -23 38 -25 87 -1 34 -6 70 -11 79 -5 9 -5 26 0 37 4 11 8 46 8
77 1 32 6 78 13 103 7 24 9 47 5 51 -3 4 -26 1 -51 -6 l-44 -12 23 -35 c33
-48 42 -114 22 -164 -9 -22 -13 -47 -10 -55 3 -9 -2 -14 -17 -14 -17 0 -21 -4
-15 -17 4 -10 10 -27 13 -38 5 -18 4 -19 -13 -5 -17 14 -18 13 -13 -13 5 -27
5 -27 -13 -11 -22 20 -26 5 -8 -28 11 -21 11 -21 -25 2 -21 12 -39 20 -41 18
-2 -2 2 -17 11 -32 20 -40 12 -42 -19 -6 -15 17 -37 30 -50 30 -41 0 -59 25
-99 141 -82 237 -84 270 -18 334 27 26 42 51 45 74 11 71 27 117 53 151 34 44
62 105 62 134 0 33 -67 89 -98 83 -19 -4 -39 7 -81 41 -31 25 -57 49 -59 53
-5 13 -46 11 -60 -3 -9 -9 -19 -5 -44 18 -81 75 -121 99 -168 101 -26 1 -52
-2 -59 -7z m-57 -274 l41 -39 -40 31 c-22 16 -53 45 -70 64 l-30 33 29 -25
c16 -14 48 -43 70 -64z m159 -137 c43 -39 76 -74 73 -77 -3 -2 -29 18 -58 46
-29 27 -66 61 -83 75 -16 15 -25 27 -20 27 6 0 45 -32 88 -71z m-269 6 c33
-30 54 -55 48 -55 -6 0 -37 25 -69 55 -32 30 -53 54 -48 54 6 0 37 -24 69 -54z
m-44 -605 c0 -5 -2 -10 -4 -10 -3 0 -8 5 -11 10 -3 6 -1 10 4 10 6 0 11 -4 11
-10z m160 -55 c7 -8 9 -15 6 -15 -4 0 -14 7 -22 15 -9 8 -11 15 -6 15 5 0 15
-7 22 -15z m530 -505 c0 -5 -2 -10 -4 -10 -3 0 -8 5 -11 10 -3 6 -1 10 4 10 6
0 11 -4 11 -10z m-829 -117 c13 -17 13 -17 -6 -3 -11 8 -22 16 -24 17 -2 2 0
3 6 3 6 0 17 -8 24 -17z m260 -30 c13 -16 12 -17 -3 -4 -10 7 -18 15 -18 17 0
8 8 3 21 -13z m118 -101 c14 -12 22 -24 20 -27 -3 -2 -25 17 -50 43 -41 43
-30 38 30 -16z m114 -111 c-2 -3 -18 10 -36 29 l-32 34 36 -30 c20 -16 34 -31
32 -33z m-322 32 c13 -16 12 -17 -3 -4 -10 7 -18 15 -18 17 0 8 8 3 21 -13z
m227 -64 c47 -42 36 -45 -12 -3 -22 19 -35 34 -30 34 5 0 24 -14 42 -31z m-87
-66 c13 -16 12 -17 -3 -4 -10 7 -18 15 -18 17 0 8 8 3 21 -13z m154 7 c3 -6
-1 -7 -9 -4 -18 7 -21 14 -7 14 6 0 13 -4 16 -10z m-4 -137 l24 -28 -30 25
c-16 14 -32 26 -34 28 -2 1 0 2 6 2 5 0 20 -12 34 -27z m-67 -72 c-2 -3 -12 3
-22 13 -16 17 -16 18 5 5 12 -7 20 -15 17 -18z m1500 -472 c62 -58 37 -66 -27
-8 -31 28 -54 55 -51 60 6 11 19 3 78 -52z m181 -70 c29 -31 28 -31 -17 5 -27
21 -48 40 -48 43 0 9 37 -18 65 -48z m-90 -39 c21 -22 37 -40 34 -40 -3 0 -23
18 -44 40 -21 22 -37 40 -34 40 3 0 23 -18 44 -40z m75 -175 c13 -14 21 -25
18 -25 -2 0 -15 11 -28 25 -13 14 -21 25 -18 25 2 0 15 -11 28 -25z"/>
<path d="M3947 3963 c-4 -3 -7 -16 -7 -27 -1 -20 -2 -19 -14 3 -13 24 -14 24
-21 -20 -7 -44 -20 -94 -36 -136 -10 -27 -39 -30 -75 -7 -30 20 -40 13 -23
-15 18 -27 6 -36 -31 -23 -30 11 -30 11 -15 -11 22 -32 19 -39 -16 -32 -29 7
-30 6 -20 -14 7 -12 10 -21 9 -21 -2 0 -18 4 -36 9 -33 10 -33 10 -27 -20 8
-34 5 -35 -37 -13 -30 16 -31 15 -25 -5 6 -24 -1 -26 -27 -6 -24 18 -41 9 -24
-13 12 -13 10 -14 -9 -4 -33 18 -34 16 -13 -30 11 -24 20 -49 20 -56 0 -7 -22
-35 -50 -62 -27 -27 -50 -55 -50 -61 0 -6 -25 -36 -55 -68 -61 -64 -119 -90
-155 -71 -11 6 -20 13 -20 16 0 9 60 64 70 64 6 0 10 5 10 10 0 6 -25 -3 -54
-20 -30 -16 -61 -30 -68 -30 -14 0 59 70 73 70 5 0 9 5 9 10 0 18 -16 11 -46
-20 -16 -16 -40 -30 -53 -30 l-25 0 29 30 c16 16 26 32 23 35 -2 3 -13 -4 -23
-15 -10 -11 -22 -20 -27 -20 -14 0 -9 27 8 41 15 12 15 14 -1 19 -14 5 -12 11
15 45 17 22 52 61 76 87 24 26 44 51 44 57 0 6 4 11 9 11 5 0 14 13 21 30 11
26 50 65 116 115 31 23 7 17 -34 -9 -46 -29 -69 -55 -114 -126 -20 -30 -64
-84 -98 -120 -82 -84 -122 -148 -85 -134 19 8 19 -7 0 -32 -19 -26 -19 -35 3
-27 13 5 11 0 -7 -20 -27 -30 -25 -32 16 -16 23 8 26 8 16 -2 -20 -20 -15 -31
6 -19 29 15 41 12 34 -7 -5 -13 -2 -15 12 -9 12 4 25 0 38 -15 16 -17 27 -20
60 -15 44 7 67 21 67 41 0 13 32 37 84 65 17 8 40 34 53 56 37 69 95 122 148
136 32 9 71 33 128 81 113 96 174 175 180 236 5 40 10 45 25 21 10 -16 10 -20
0 -18 -10 2 -13 -19 -12 -82 0 -75 5 -96 39 -180 28 -66 39 -109 38 -140 -2
-98 -16 -241 -24 -246 -5 -3 -2 -22 6 -42 8 -20 16 -81 17 -136 l4 -99 89 -83
c50 -46 95 -84 102 -84 7 0 16 7 21 16 7 12 -7 31 -61 84 l-69 68 21 21 22 22
52 -45 c29 -24 64 -58 79 -75 31 -34 58 -32 58 4 0 15 -16 35 -45 59 -25 21
-45 46 -45 56 0 10 -4 21 -9 24 -5 3 -7 14 -4 25 3 13 -11 33 -47 67 -66 61
-90 104 -29 50 52 -45 165 -145 225 -199 42 -37 73 -45 81 -20 5 13 -14 33
-84 94 -38 32 -42 40 -37 70 4 31 1 37 -35 63 -22 16 -55 45 -73 65 l-33 35
50 -39 c28 -22 55 -44 61 -50 6 -5 29 -23 50 -40 21 -16 65 -55 98 -86 61 -58
86 -65 86 -25 0 15 -21 40 -64 77 -56 47 -63 57 -59 82 5 23 -1 34 -38 65 -58
50 -97 87 -79 75 30 -20 175 -138 178 -145 2 -5 8 -8 13 -8 6 0 20 -9 32 -20
24 -23 50 -23 55 1 2 10 -25 39 -68 74 -52 43 -68 61 -60 70 10 12 4 45 -9 45
-3 0 -17 10 -31 23 -14 12 -42 35 -63 51 -28 22 -36 33 -31 49 6 20 -10 39
-86 95 -66 50 -82 72 -75 103 4 16 3 29 -2 29 -12 0 -133 120 -133 131 0 25
39 -4 175 -131 82 -77 157 -140 166 -140 9 0 20 7 23 16 4 11 -15 35 -63 80
-54 50 -68 69 -64 85 4 14 -2 28 -18 42 -14 12 -47 42 -74 66 -28 24 -73 65
-100 90 -80 73 -91 81 -98 74z"/>
<path d="M3986 2678 c-8 -111 -20 -471 -19 -576 1 -75 5 -97 20 -114 10 -12
13 -18 6 -15 -14 9 -20 -12 -22 -80 0 -30 3 -53 9 -53 5 0 10 3 10 8 0 4 4 13
9 21 7 10 27 -4 87 -63 79 -76 115 -93 128 -59 5 11 -4 25 -29 45 -37 31 -44
48 -20 48 27 0 29 30 4 58 -30 34 41 -27 88 -77 36 -36 63 -36 63 1 0 12 -11
34 -25 48 -23 24 -24 28 -10 40 22 18 19 33 -15 65 -16 16 -30 36 -30 44 0 10
3 12 8 6 4 -6 39 -37 77 -70 39 -33 73 -64 76 -68 9 -13 52 -4 57 11 2 7 -13
28 -33 46 -33 31 -34 34 -16 39 32 8 25 26 -26 73 -26 24 -45 46 -42 49 7 6
159 -125 159 -137 0 -5 10 -8 23 -6 33 5 35 50 3 72 -23 14 -24 19 -14 42 11
24 9 29 -18 53 -106 94 -127 113 -114 106 8 -4 35 -24 59 -44 71 -57 110 -81
131 -81 31 0 24 36 -11 61 -22 15 -27 25 -20 32 20 20 12 44 -23 71 -19 14
-40 32 -48 39 -7 7 -28 23 -45 36 -24 16 -33 30 -33 51 0 21 -9 35 -32 52 -39
27 -62 46 -142 117 -34 29 -83 71 -111 91 -27 21 -61 49 -74 64 -14 14 -28 26
-32 26 -4 0 -10 -33 -13 -72z"/>
<path d="M3375 2329 c-5 -5 -23 -20 -39 -33 -33 -28 -27 -50 13 -43 20 4 34
-2 64 -31 39 -38 51 -32 18 10 -11 13 -22 41 -26 61 -8 41 -15 49 -30 36z"/>
<path d="M3245 570 c-4 -6 -1 -18 7 -27 11 -14 11 -16 -2 -8 -8 4 -23 15 -32
23 -21 18 -44 7 -27 -14 15 -18 3 -32 -13 -16 -17 17 -38 15 -38 -5 0 -15 -2
-15 -19 1 -21 19 -35 8 -24 -21 6 -16 5 -16 -10 -4 -9 7 -23 11 -32 8 -8 -4
-17 -2 -20 4 -10 15 -25 0 -18 -19 6 -15 5 -15 -11 -3 -10 9 -20 11 -24 5 -4
-5 -14 -9 -22 -9 -8 0 -14 -6 -12 -14 3 -12 0 -12 -12 -2 -10 8 -16 9 -21 1
-3 -6 -11 -8 -16 -5 -5 4 -9 1 -9 -4 0 -6 -7 -11 -16 -11 -8 0 -12 -5 -8 -11
5 -8 1 -8 -14 0 -13 7 -22 7 -24 1 -2 -5 -15 -11 -30 -12 -16 -1 -28 -6 -28
-11 0 -5 -7 -7 -15 -3 -9 3 -29 -7 -48 -24 l-32 -29 25 -22 c14 -12 39 -36 57
-52 27 -25 35 -28 48 -17 12 10 18 10 30 0 8 -7 15 -10 15 -6 0 4 11 -1 24 -9
19 -13 29 -14 45 -6 13 7 22 8 26 1 10 -17 28 -11 21 6 -4 11 5 8 29 -11 51
-38 56 -23 9 27 l-39 41 46 -36 c25 -20 51 -37 56 -37 5 0 18 -9 28 -20 12
-14 22 -17 28 -11 7 7 2 17 -14 30 -13 11 -20 20 -15 21 4 0 33 -23 64 -51 70
-64 83 -46 16 22 -65 66 -49 74 19 10 30 -28 57 -51 62 -51 4 0 20 -11 37 -25
16 -14 34 -25 39 -25 22 0 5 25 -53 80 -35 33 -58 60 -52 60 5 0 23 -13 39
-30 16 -16 34 -30 40 -30 6 0 22 -11 35 -25 13 -14 30 -25 39 -25 8 0 30 -14
48 -32 27 -26 35 -30 46 -19 10 10 -2 25 -58 77 -69 63 -82 90 -15 34 19 -17
39 -30 45 -30 7 0 22 -11 35 -25 13 -14 31 -24 41 -23 9 2 35 -14 58 -34 45
-42 61 -47 61 -20 0 10 -31 45 -69 77 -77 66 -107 108 -36 49 25 -20 51 -34
59 -31 7 3 30 -12 52 -34 21 -21 42 -39 47 -39 6 0 32 -20 58 -45 51 -48 66
-54 75 -31 5 13 -124 147 -162 169 -8 4 -14 16 -14 25 0 10 -73 79 -172 163
-198 166 -223 185 -233 169z m-350 -300 c10 -11 16 -20 13 -20 -3 0 -13 9 -23
20 -10 11 -16 20 -13 20 3 0 13 -9 23 -20z"/>
</g>
</svg>
